<svg width="24" height="20" viewBox="0 0 24 20" fill="none" xmlns="http://www.w3.org/2000/svg">
<g opacity="0.55">
<path d="M17.75 0C15.0879 0 12.8892 2.24787 12 3.30878C11.1108 2.24787 8.91211 0 6.24998 0C2.80373 0 0 2.88043 0 6.42047C0 8.35185 0.843281 10.1518 2.31933 11.3836C2.3408 11.4174 2.36719 11.4485 2.39794 11.4764L11.647 19.8673C11.7446 19.9556 11.8721 20 12 20C12.1279 20 12.2558 19.9556 12.3535 19.8669L21.9102 11.1821L22.0088 11.0951C22.0869 11.0281 22.1641 10.9601 22.2505 10.8732C22.2866 10.8408 22.3164 10.8043 22.3394 10.7648C23.4112 9.57166 24 8.03267 24 6.42047C24 2.88043 21.1963 0 17.75 0ZM21.5073 10.2535C21.4936 10.2681 21.4809 10.2836 21.4697 10.2996C21.4229 10.3485 21.3716 10.3915 21.3208 10.4355L11.9995 18.9032L3.21877 10.9366C3.19045 10.886 3.15089 10.8398 3.10256 10.8012C1.76611 9.74033 0.999984 8.14364 0.999984 6.42047C0.999984 3.38156 3.35498 0.909119 6.24998 0.909119C9.11231 0.909119 11.5552 4.30312 11.5796 4.3373C11.7642 4.59652 12.2358 4.59652 12.4204 4.3373C12.4448 4.30312 14.8877 0.909119 17.75 0.909119C20.645 0.909119 23 3.3816 23 6.42047C23 7.85246 22.4697 9.21388 21.5073 10.2535Z" fill="white"/>
</g>
</svg>
